PathFileType	4	(X/Y/Z)	C:/Users/beibeiliu/ov580/test_trc/User3\sequence.16_training_dense_right.trc
DataRate	CameraRate	NumFrames	NumMarkers	Units	OrigDataRate	OrigDataStartFrame	OrigNumFrames
120	120	10	19	mm	120	167	266
Frame#	Time	ThumbCMC			ThumbMCP			ThumbIP			ThumbTip			IndexMCP			IndexPIP			IndexTip			MiddleMCP			MiddlePIP			MiddleTip			RingMCP			RingPIP			RingTip			PinkyMCP			PinkyPIP			PinkyTip			BackHand1			BackHand2			BackHand3	
		X0	Y0	Z0	X1	Y1	Z1	X2	Y2	Z2	X3	Y3	Z3	X4	Y4	Z4	X5	Y5	Z5	X6	Y6	Z6	X7	Y7	Z7	X8	Y8	Z8	X9	Y9	Z9	X10	Y10	Z10	X11	Y11	Z11	X12	Y12	Z12	X13	Y13	Z13	X14	Y14	Z14	X15	Y15	Z15	X16	Y16	Z16	X17	Y17	Z17	X18	Y18	Z18	
166	1.38333	212.622	-10.4684	-1.52844	203.071	-7.12194	-32.9276	197.245	-5.98908	-60.3374	185.178	-15.9925	-78.2605	213.911	-57.2582	-59.1942	198.837	-50.7016	-89.0241	182.227	-28.1569	-97.4189	200.798	-68.8696	-62.3434	181.673	-53.6191	-85.5466	162.769	-21.0357	-70.1685	183.853	-76.2579	-48.72	162.94	-63.1833	-69.1569	153.429	-34.6156	-57.3672	171.816	-77.3615	-30.2336	155.223	-72.8118	-54.2757	148.898	-44.9312	-53.7727	199.898	-68.9353	3.99405	196.086	-60.1464	31.978	223.709	-44.5534	10.0959	
167	1.39167	215.838	-10.1944	-1.13608	206.754	-10.4914	-32.4042	201.199	-16.3912	-65.9762	188.089	-23.9607	-79.8382	223.445	-61.4281	-60.2127	209.701	-59.1797	-87.4441	184.705	-36.6716	-96.9407	207.797	-74.5415	-59.6284	188.073	-64.3629	-83.5699	164.72	-31.6332	-70.9198	188.53	-82.4415	-46.8025	169.416	-68.7459	-70.6484	156.785	-42.3207	-57.1849	173.524	-85.6608	-30.1298	162.431	-78.9879	-53.7851	150.675	-51.3467	-52.1213	201.943	-73.3771	5.98222	198.497	-63.0651	35.9383	225.403	-48.9628	11.7216	
168	1.4	216.152	-12.1615	-1.01235	206.235	-18.439	-33.4054	200.632	-24.0406	-60.7865	189.907	-35.2359	-79.0525	225.826	-67.2361	-55.0883	208.265	-68.6592	-85.7646	188.959	-49.2765	-96.3493	210.509	-82.0186	-54.6744	191.287	-74.0541	-81.545	167.764	-44.1254	-71.4021	190.182	-91.2528	-43.5507	169.03	-78.4071	-67.3745	160.485	-48.136	-56.4625	174.566	-95.035	-30.5237	164.308	-84.4757	-52.1759	150.757	-58.9446	-52.0636	205.229	-78.052	11.2038	203.119	-65.6344	34.7983	225.162	-49.9518	14.8274	
169	1.40833	214.439	-18.7671	-1.69902	205.64	-22.9058	-35.4261	198.432	-31.4291	-61.4018	186.456	-44.0153	-83.2421	220.114	-79.7795	-55.5058	208.617	-79.2493	-81.609	187.837	-61.5249	-94.7122	209.422	-90.4224	-51.7978	186.758	-81.6547	-79.6046	164.534	-51.7104	-69.6636	191.71	-97.3336	-39.4159	169.577	-88.3914	-63.1139	158.702	-57.8322	-53.8738	174.918	-102.065	-25.6172	161.201	-96.6326	-44.571	151.846	-64.4132	-47.4996	206.761	-84.3702	13.263	204.32	-63.3015	39.57	225.541	-52.0515	14.7578	
170	1.41667	210.651	-27.6514	-5.15312	199.821	-28.6209	-37.1121	190.93	-41.2597	-65.6016	177.52	-54.3445	-75.8569	215.94	-85.3996	-51.0681	199.707	-90.2089	-77.1783	172.951	-70.1436	-90.8282	200.662	-100.437	-47.7746	178.072	-91.2953	-74.861	155.655	-61.9106	-64.9127	188.719	-103.927	-36.0289	166.429	-100.847	-55.8641	150.009	-68.7809	-48.8328	172.98	-107.475	-18.3414	155.448	-100.85	-40.3221	143.627	-71.766	-38.62	204.565	-87.9078	14.3941	205.571	-69.1343	40.4419	223.327	-56.8903	15.1846	
171	1.425	206.336	-30.229	-7.85271	191.461	-36.2166	-33.2824	178.958	-50.3823	-59.7954	164.85	-63.0086	-72.5806	206.243	-92.5413	-51.9972	185.257	-97.5284	-75.4724	160.574	-79.7687	-85.9609	190.927	-107.007	-47.986	164.474	-101.388	-67.2596	142.397	-70.4786	-61.3882	178.796	-111.429	-28.6181	154.786	-103.721	-50.5569	139.829	-73.6663	-40.602	166.445	-114.613	-13.9968	147.57	-109.801	-30.4347	137.335	-76.947	-31.7814	204.025	-89.7774	16.5565	203.801	-74.6421	40.5946	224.264	-59.1483	12.0158	
172	1.43333	197.707	-35.6948	-6.26289	180.341	-40.6689	-32.7752	164.997	-52.369	-59.6124	149.702	-70.4517	-68.439	195.887	-95.0237	-51.1082	171.215	-100.089	-74.6338	143.325	-85.0967	-81.1905	181.781	-108.779	-46.3834	152.548	-102.871	-65.1233	129.608	-77.4642	-54.8945	169.12	-114.916	-28.275	143.433	-110.806	-40.9672	131.309	-78.6741	-35.7009	158.372	-117.709	-3.03805	135.064	-111.409	-21.8848	131.412	-81.033	-22.6709	199.688	-94.6368	16.4495	203.317	-76.7354	39.9015	217.232	-65.3131	12.1858	
173	1.44167	188.863	-36.6878	-3.48308	168.702	-42.7963	-28.8868	151.225	-54.4129	-54.4827	133.672	-72.607	-63.3296	181.711	-97.3417	-53.2434	156.906	-104.095	-68.7178	127.461	-91.6725	-71.3317	169.118	-112.118	-42.3928	140.249	-107.096	-59.2254	115.449	-79.1583	-47.2441	161.205	-116.111	-23.991	133.243	-110.173	-36.6235	119.887	-79.9819	-24.9746	152.907	-119.97	-0.0765407	130.751	-114.966	-16.5842	120.92	-84.4357	-15.9132	195.278	-93.7407	17.0114	202.744	-78.4713	41.8121	212.523	-63.2278	5.62901	
174	1.45	178.97	-33.7899	-1.49898	155.355	-43.8096	-27.1947	137.303	-53.0671	-44.8713	118.656	-71.4288	-55.7777	169.46	-95.6958	-51.567	143.637	-101.591	-66.0389	112.039	-91.2538	-64.631	160.699	-111.134	-38.968	131.242	-109.676	-51.8806	103.186	-82.0788	-42.5027	154.277	-117.198	-21.4559	120.73	-110.854	-28.7672	108.961	-84.3784	-14.3358	148.628	-121.187	-0.23055	123.698	-116.617	-10.0636	115.168	-86.4186	-6.77477	193.682	-95.5162	15.0566	198.518	-79.397	42.1554	203.803	-61.8026	7.05261	
175	1.45833	167.833	-32.9878	0.534672	142.587	-41.4378	-22.4138	122.511	-53.0751	-41.3703	108.434	-71.5403	-43.4158	158.295	-91.6132	-47.2699	130.043	-99.9719	-60.6858	99.1707	-87.7352	-57.6365	152.165	-106.903	-39.1742	116.189	-107.349	-48.0653	93.2572	-89.1863	-30.5635	145.628	-116.947	-20.0932	114.906	-112.25	-23.9299	102.861	-89.5197	-9.52155	142.391	-123.22	0.268135	118.099	-115.935	-6.85123	105.071	-91.7018	2.79587	188.838	-93.976	17.524	194.65	-74.433	39.4325	197.03	-61.1284	5.40568	
